# xmcd
#
# Track frame offsets: 
#        150
#        14707
#        27192
#        41327
#        55297
#        68050
#        81720
#        94647
#        107840
#        118175
#        135262
#        147425
#
# Disc length: 2176 seconds
#
# Revision: 3
# Processed by: cddbd v1.5.2PL0 Copyright (c) Steve Scherf et al.
# Submitted via: ExactAudioCopy v0.99pb4
#
DISCID=a7087e0c
DTITLE=Jimmy Witherspoon - baby, baby, baby
DYEAR=1963
DGENRE=Blues
TTITLE0=Mean Old Frisco
TTITLE1=Rocks in my Bed
TTITLE2=Bad Bad Whiskey
TTITLE3=Baby, Baby, Baby
TTITLE4=Sail on little Girl
TTITLE5=One Scotch, One Bourbon, One Beer
TTITLE6=Lonely Boy Blues
TTITLE7=Blues and Trouble
TTITLE8=Endless Sleep
TTITLE9=I'll go on Living
TTITLE10=I can't hardly See
TTITLE11=It's a lonesome old World
EXTD=YEAR: 1963 ID3G:   0
EXTT0=
EXTT1=
EXTT2=
EXTT3=
EXTT4=
EXTT5=
EXTT6=
EXTT7=
EXTT8=
EXTT9=
EXTT10=
EXTT11=
PLAYORDER=
